<svg viewBox="0 0 850.81 287.08" xmlns="http://www.w3.org/2000/svg"><path d="m103.15 287.06c-1.7-.18-3.38-.41-5.08-.54a64 64 0 0 1 -30.32-10.27 38.88 38.88 0 0 1 -13.22-13.93 27.3 27.3 0 0 1 -3-9.32c-1.8-12.93 2.89-23.32 12.74-31.51 6.58-5.49 14.29-8.34 22.73-9.49a72.83 72.83 0 0 1 12.07-.84 64.78 64.78 0 0 1 24 5.5 79.87 79.87 0 0 1 15.9 9.18 16.51 16.51 0 0 1 7.05 12.5 14.78 14.78 0 0 1 -3.74 10.9 23.48 23.48 0 0 1 -11.43 7.2 32.69 32.69 0 0 1 -16.07.9 15.94 15.94 0 0 1 -10.22-6.26c-1.27-1.77-2.36-3.68-3.45-5.57-1.43-2.46-2.69-5-4.22-7.43a26.6 26.6 0 0 0 -3.71-4.49 9.18 9.18 0 0 0 -3.12-1.91c-2.11-.82-3.86.08-4.71 2.18a8.36 8.36 0 0 0 -.31 4.92 42.69 42.69 0 0 0 1.46 5.22c2.68 7.76 8 13.12 15.28 16.67 13.25 6.44 30.66 5.3 42.92-2.85a32.23 32.23 0 0 0 9.22-9.21 13.51 13.51 0 0 0 1.53-12.13 29 29 0 0 0 -5.92-10.15 56.69 56.69 0 0 0 -20.35-14.59 63.37 63.37 0 0 0 -15.47-4.29c-7.49-1.26-15-2.49-22.43-4a87.07 87.07 0 0 1 -24.94-9.09 45.69 45.69 0 0 1 -9.34-6.84 35.27 35.27 0 0 1 -9.48-15.52c-4.72-15.46-1.16-28.89 10-40.42 5.79-6 12.78-10.3 20.32-13.74a116.93 116.93 0 0 1 22.35-7.18 135.12 135.12 0 0 1 28.81-3.26 142.66 142.66 0 0 1 17.66.72 61.78 61.78 0 0 1 23.84 7.24 35.34 35.34 0 0 1 10.59 9 18.44 18.44 0 0 1 3.77 13.94 27.27 27.27 0 0 1 -5.38 13.62 18.18 18.18 0 0 1 -10.26 7 26 26 0 0 1 -9.21.38 24 24 0 0 1 -13.78-6.27c-2.52-2.3-4.8-4.87-7.16-7.34-1.54-1.62-3-3.35-4.54-4.93-5.38-5.4-12-7.23-19.44-6.55a27.24 27.24 0 0 0 -7.08 1.54 15.72 15.72 0 0 0 -5.23 3.12 5 5 0 0 0 -1.39 6.06 8.05 8.05 0 0 0 3.21 3.92 37.35 37.35 0 0 0 5.23 2.86 64.4 64.4 0 0 0 13.17 3.76c7.78 1.53 15.58 3 23.12 5.52 5.36 1.8 10.72 3.58 16.1 5.3a59.76 59.76 0 0 1 12.63 5.55c14.4 8.67 24 21 27.46 37.56 3.62 17.22-.46 32.7-11.76 46.23-1.22 1.45-2.43 2.92-3.67 4.36a68.24 68.24 0 0 1 -27.88 19.27 112.13 112.13 0 0 1 -26.09 6.42c-5.24.65-10.5 1-15.77 1.19a13.25 13.25 0 0 0 -1.39.19z"/><path d="m301.44 287.06c-.67-.18-1.35-.38-2-.55-4-1.06-6-3.43-6.61-7.47a28.92 28.92 0 0 1 .23-7c.16-1.8.33-3.6.43-5.4a5.1 5.1 0 0 0 -.3-1.81c-.25-.77-.75-1-1.44-.55a7.38 7.38 0 0 0 -1.64 1.36 54.59 54.59 0 0 1 -23.28 15.17 42.34 42.34 0 0 1 -32.74-1.81c-8.55-4-15.45-9.77-20.08-18.12a41.77 41.77 0 0 1 -5-16.39 133 133 0 0 1 -.16-21.22c.09-1.33 0-2.67.06-4q.54-9.68 1.11-19.36a30.49 30.49 0 0 0 -.44-7.39 13.57 13.57 0 0 0 -3.88-7.46c-1.29-1.26-2.71-2.39-4-3.63a32.9 32.9 0 0 1 -3.1-3.15 8.63 8.63 0 0 1 -.11-11.29 18 18 0 0 1 7.94-5.59c6.06-2.49 12.32-4.43 18.56-6.4a119.22 119.22 0 0 1 16.84-4.23 31.76 31.76 0 0 1 9.23-.48 16.79 16.79 0 0 1 2.1.37 7.27 7.27 0 0 1 3.46 2c3.61 3.59 5 8 5.12 12.92.08 2.71 0 5.42.07 8.13q.24 18.33.5 36.66c.08 5.76.13 11.52.38 17.26.17 4.18.64 8.34 1 12.51a5.62 5.62 0 0 1 .06.56 5.47 5.47 0 0 0 1.41 4.2 9.19 9.19 0 0 0 4.72 2.77 12.26 12.26 0 0 0 6.47-.42 22.24 22.24 0 0 0 9-5.39 12.93 12.93 0 0 0 3.55-6.85 32 32 0 0 0 .75-7.63c-.09-3.95.14-7.9.08-11.84a130.36 130.36 0 0 0 -.54-14.67 31.67 31.67 0 0 0 -5.19-14.31 36.94 36.94 0 0 0 -3.83-4.19c-.73-.75-1.59-1.37-2.31-2.13a7.69 7.69 0 0 1 -1.9-8 13.48 13.48 0 0 1 3.38-5.55 19.14 19.14 0 0 1 7-4.56c3.51-1.33 6.9-3 10.45-4.16a198 198 0 0 1 22.79-6.25c1.86-.39 3.74-.69 5.62-.9a18.38 18.38 0 0 1 7.34.66c4.8 1.5 7.35 5 8.3 9.79a49.15 49.15 0 0 1 .47 11.81c-.21 4.84-.58 9.68-.75 14.52q-.6 17.4-1.08 34.8a164.74 164.74 0 0 0 .55 19.24c.26 2.79.7 5.56 1.14 8.33a2.92 2.92 0 0 0 .83 1.59 45.86 45.86 0 0 0 4.12 3.5c1.72 1.27 3.59 2.33 5.3 3.6a20.43 20.43 0 0 1 3.26 3c2.24 2.65 2.26 5.56.17 8.34a18.34 18.34 0 0 1 -5.41 4.58 39.87 39.87 0 0 1 -13 4.83c-4.23.84-8.5 1.56-12.74 2.37a137.7 137.7 0 0 0 -14.26 4c-1.67.51-3.38.9-5.07 1.35h-2.86z"/><path d="m469.07 232.84c-.46-2.57-1-5-1.32-7.43a57.1 57.1 0 0 1 3.9-30 60.86 60.86 0 0 1 28-31 68.25 68.25 0 0 1 21.85-7.14 77.91 77.91 0 0 1 17.92-.81c10.57.75 20.62 3.33 29.7 9a34.41 34.41 0 0 1 12.31 12.45c4.46 8.11 4.33 16.28 0 24.39a37.06 37.06 0 0 1 -10.72 12.07 61.24 61.24 0 0 1 -21.54 10.13 79 79 0 0 1 -22 2.59c-1.47 0-2.93-.15-4.37-.23-.43.69 0 1.05.39 1.4 1.83 1.79 3.57 3.7 5.55 5.33a51.33 51.33 0 0 0 26.51 11.34 52.27 52.27 0 0 0 32.67-6c10.6-5.81 18.27-14.29 21.93-25.92 4.48-14.25 1.72-27.34-7.22-39.17a47.4 47.4 0 0 0 -16.63-13.66 8.17 8.17 0 0 1 -4.49-8.07 14.82 14.82 0 0 1 2.35-6.65 30 30 0 0 1 8.47-8.58c6.6-4.61 13.88-7.68 21.93-8.13 13.08-.74 23.2 4.4 29.57 16.15a42.94 42.94 0 0 1 4.87 16 77.45 77.45 0 0 1 -3.62 32.78 127.18 127.18 0 0 1 -33 52.81 111.51 111.51 0 0 1 -48.77 27.84 96.57 96.57 0 0 1 -30.22 3.22 88.48 88.48 0 0 1 -31.74-7.44 56.84 56.84 0 0 1 -23.54-19.11l-.85-1.14c-2 1.58-3.89 3.23-5.93 4.6a38.86 38.86 0 0 1 -41.09.68 29.21 29.21 0 0 1 -13.35-17.48c-1-3.64-.84-7.33-.65-11 .33-6.55.53-13.11.79-19.67q.38-9.48.75-19c.15-3.85.26-7.7.44-11.55a6.15 6.15 0 0 0 -2.56-5.29 4.45 4.45 0 0 0 -3.88-1 20.63 20.63 0 0 1 -8.21 0c-.61-.11-1.23-.14-1.85-.2a5.55 5.55 0 0 0 -6 5.56c.05 5.28-.07 10.55-.15 15.83q-.24 15.06-.53 30.11c0 1.38-.07 2.76-.07 4.13a14.48 14.48 0 0 0 4.58 10.57c1.52 1.5 3.26 2.77 4.91 4.13 1 .82 2.05 1.56 3 2.45a5.39 5.39 0 0 1 1 7 13.09 13.09 0 0 1 -5.65 5.47 18.79 18.79 0 0 1 -8.66 2 86.3 86.3 0 0 1 -10.66-.79 82.11 82.11 0 0 0 -19.06-.22 27.93 27.93 0 0 1 -12.4-.81 23.35 23.35 0 0 1 -5-2.27c-3.7-2.35-5-6-4.69-10.2a4.87 4.87 0 0 1 2.14-3.39c1.78-1.51 3.5-3.07 5.24-4.62.21-.19.39-.42.59-.61 4.12-3.87 5.73-8.58 5.52-14.25-.3-8.17-.15-16.35-.25-24.53 0-3.14-.13-6.28-.41-9.4a19.18 19.18 0 0 0 -1.16-4.54 8.64 8.64 0 0 0 -2.82-3.66 34.87 34.87 0 0 1 -6.45-6.62 12.18 12.18 0 0 1 -1.07-1.85 8.06 8.06 0 0 1 1.33-9.39 14.84 14.84 0 0 1 8.07-4.54 38.86 38.86 0 0 1 10.92-.6c3.85.18 7.69.43 11.54.5a80.4 80.4 0 0 0 12.76-1.16c11.32-1.56 21.69-5.87 31.81-10.92a127.16 127.16 0 0 0 22.32-14c1.44-1.13 3.12-2 4.32-3.43a.75.75 0 0 1 .38-.18c2.65-.88 5.33-1.42 8.11-.62a8.92 8.92 0 0 1 5.59 5 22.06 22.06 0 0 1 1.93 7.27 45 45 0 0 1 -.1 10.82c-.36 3.21.5 4.2 3.69 4.2 2.33 0 4.66-.09 7 0a28 28 0 0 1 4.65.54 6 6 0 0 1 5 5.52 28.89 28.89 0 0 1 -.39 10.07c-.7 3.33-2.47 4.68-5.89 4.48-2.12-.12-4.24-.55-6.36-.75a29.55 29.55 0 0 0 -5-.18c-3.35.29-5 2.33-5.11 5.67-.12 6.89-.3 13.79-.46 20.68-.17 7.27-.32 14.54-.49 21.82-.06 2.8-.17 5.61-.23 8.41a5.8 5.8 0 0 0 7.62 5.46c.94-.35 1.83-.8 2.77-1.22zm73.16-46.84c0-.58 0-1.15 0-1.71a11.66 11.66 0 0 0 -.26-1.55 8.77 8.77 0 0 0 -9-7.35 14.59 14.59 0 0 0 -6.72 1.66c-6.15 3.1-10.66 7.72-12.9 14.35a26.87 26.87 0 0 0 -1.6 12.05c.56 4.57 3.5 6.92 8 6.49l.71-.1a29.26 29.26 0 0 0 15.12-8.06c4.33-4.33 6.3-9.74 6.62-15.78z"/><path d="m215 88.5a45.36 45.36 0 0 1 2.28-4.81 15.11 15.11 0 0 1 2.95-3.44 7.37 7.37 0 0 1 7.87-1.35 22.46 22.46 0 0 1 4.14 2.19 28.46 28.46 0 0 1 6.29 5.76 37.4 37.4 0 0 0 3.1 3.54 15 15 0 0 0 13 4 7.15 7.15 0 0 0 2.15-.71 3.54 3.54 0 0 0 1.59-5.37 8.13 8.13 0 0 0 -2.81-2.78 25.12 25.12 0 0 0 -7.47-3.11c-3.5-.9-7-1.65-10.51-2.59a29.31 29.31 0 0 1 -13.72-8.07 23.67 23.67 0 0 1 -6.71-14.91 13.3 13.3 0 0 1 .81-5.59 19.55 19.55 0 0 1 5.6-8.15 40.31 40.31 0 0 1 18.55-9.22c.6-.13 1.2-.24 1.82-.36a1.36 1.36 0 0 0 .12-.42 19 19 0 0 1 3.83-13.94c2.63-3.67 6.46-5.47 10.78-6.39a45.39 45.39 0 0 1 8.94-.79c3.94-.05 7.89 0 11.83-.08 4.38-.12 8.78-.3 13-1.75 3.18-1.1 6.25-2.53 9.38-3.79 2-.8 3.95-1.62 6-2.28a11.42 11.42 0 0 1 5.63-.5 6.79 6.79 0 0 1 5.72 4.72 24.78 24.78 0 0 1 1.12 8c0 5.65-.13 11.31-.25 17 0 1.8-.2 3.6-.3 5.4v1.48a6.67 6.67 0 0 0 .84-.66 27 27 0 0 1 16.09-8.45 28.58 28.58 0 0 1 16.09 1.72 27 27 0 0 1 4.82 2.73 12.61 12.61 0 0 1 4.07 5 40.12 40.12 0 0 1 3.63 18.47c-.06 3.75-.3 7.51-.3 11.27 0 3.46.11 6.94.37 10.4a15.82 15.82 0 0 0 4.37 9.84c.61.66 1.26 1.3 1.81 2a5.07 5.07 0 0 1 .11 6.57 8.33 8.33 0 0 1 -6.68 3.57c-2.52.12-5 .09-7.56 0a141.08 141.08 0 0 0 -14.67.68 16.71 16.71 0 0 1 -8.77-1.33 12.78 12.78 0 0 1 -1.61-.91 4.57 4.57 0 0 1 -1.8-5.86 13.74 13.74 0 0 1 1.61-2.67c1.11-1.55 2.29-3 3.44-4.55a5.47 5.47 0 0 0 1.11-3c.5-7.93 1.11-15.86.38-23.8a30 30 0 0 0 -1.7-8.06 12.38 12.38 0 0 0 -.9-1.78 2.88 2.88 0 0 0 -3.48-1.32 8.66 8.66 0 0 0 -3 1.41c-4.76 3.83-7.87 8.61-7.95 14.94a108.19 108.19 0 0 0 .93 14.94 37.45 37.45 0 0 0 .68 4.22 8.82 8.82 0 0 0 3.21 5.08 10.85 10.85 0 0 1 3.4 4.33 5.19 5.19 0 0 1 -2.05 6.85 10.78 10.78 0 0 1 -7.05 1.7c-2.23-.2-4.46-.26-6.69-.32-5.58-.15-11.1.56-16.64 1a18.55 18.55 0 0 1 -4.53-.14 7.94 7.94 0 0 1 -5.55-3.9 4.26 4.26 0 0 1 .36-5.42 15.39 15.39 0 0 1 2.22-2.2 10.32 10.32 0 0 0 4.08-8.83c-.17-4.8-.39-9.6-.54-14.4q-.15-4.84-.16-9.7a211.43 211.43 0 0 0 -1-21.65c-.14-1.27-.09-2.58-.33-3.83a10.15 10.15 0 0 0 -1-3.22c-3.37-6-8.41-9.53-15.36-10.21a43.35 43.35 0 0 0 -12.03.3c-4 .72-5.85 2.73-6.27 6.79a15.56 15.56 0 0 0 .05 3.41c.21 1.65.88 2.19 2.56 2.24a40.51 40.51 0 0 1 10.83 1.57 24.19 24.19 0 0 1 8.42 4.37 11.24 11.24 0 0 1 4.28 7.17c.58 4.11-2.44 10.88-8.23 12.23a8.47 8.47 0 0 1 -6.06-.87 24.73 24.73 0 0 1 -6.11-4.64c-1.1-1.11-2.08-2.35-3.15-3.49a34.15 34.15 0 0 0 -3.1-3.15 8.83 8.83 0 0 0 -6.16-2.21 5 5 0 0 0 -4.84 3.72 5.08 5.08 0 0 0 2.29 5.86 14.51 14.51 0 0 0 5.61 1.95 92.29 92.29 0 0 1 15.42 3.41 27 27 0 0 1 11 6.39 24 24 0 0 1 7.33 16.1 16.88 16.88 0 0 1 -1.72 8.43 27.42 27.42 0 0 1 -19.89 15.33 83 83 0 0 1 -28.5.77 31.18 31.18 0 0 1 -16.58-7.38l-.51-.38c-.33.19-.65.35-1 .55a23.37 23.37 0 0 1 -8.58 2.92 71.11 71.11 0 0 0 -11.76 2.81 9.66 9.66 0 0 1 -4.46.71c-3-.38-4.43-2-4.47-4.91 0-.9.1-1.81.17-2.7s.17-1.81.18-2.7a6.34 6.34 0 0 0 -.24-1.3c-1 0-1.31.62-1.76 1.09a27.9 27.9 0 0 1 -13.44 8 21.42 21.42 0 0 1 -16-2 22.32 22.32 0 0 1 -7.31-5.8 20.85 20.85 0 0 1 -4.62-12.78c-.11-4.41 0-8.84.13-13.26.07-2.7.31-5.41.44-8.12 0-.85 0-1.71 0-2.56a7.68 7.68 0 0 0 -2.68-5.63c-.86-.76-1.75-1.48-2.55-2.29-2.31-2.37-2.25-5.15.22-7.36a9.76 9.76 0 0 1 2.74-1.75 98.83 98.83 0 0 1 18.77-5.69 14.86 14.86 0 0 1 5.11-.17 4.23 4.23 0 0 1 2.58 1.32 8.53 8.53 0 0 1 2.35 5.67c.08 3.71.09 7.42.15 11.12.13 7.38.24 14.75.43 22.12.06 2.23.33 4.46.55 6.68a3.81 3.81 0 0 0 3.41 3 7.5 7.5 0 0 0 2.41-.13 10.9 10.9 0 0 0 2.39-.88 7.9 7.9 0 0 0 4.9-7.28c.1-5.19.11-10.37-.11-15.55a13.9 13.9 0 0 0 -2.16-6.75 12.82 12.82 0 0 0 -2.66-3.11c-3.07-2.5-2.55-5.26-.52-7.54a9.89 9.89 0 0 1 3.13-2.4 77.15 77.15 0 0 1 20-6 12 12 0 0 1 4.09.13c2.59.48 4.36 2.63 4.72 5.6a26.65 26.65 0 0 1 .18 4.55c-.49 10.6-1.12 21.19-.91 31.8.06 2.66.41 5.31.72 8 .17 1.45.45 1.72 1.82 2.6z"/><path d="m56.23 0c7.14.08 13.54 1.1 19.54 3.94 10.23 4.82 16.12 12.78 17.75 23.99 2.33 16-8.71 30.69-20.77 35.17-5.35 2-10.74 2.34-16.14.2a16.28 16.28 0 0 1 -7.86-6.3 13.71 13.71 0 0 1 -2-6.48 17.64 17.64 0 0 1 1.67-9.29 13.11 13.11 0 0 1 5.84-6 7.69 7.69 0 0 1 3.74-.86 55 55 0 0 0 6.68-.22 11.59 11.59 0 0 0 8.32-4.75 7.91 7.91 0 0 0 -.25-10.25 14.52 14.52 0 0 0 -4.75-3.83c-8.7-4.5-18.62-4.11-26.69 3a32 32 0 0 0 -10 16.61 40.35 40.35 0 0 0 2 26.68c4.42 10.12 11.93 17.07 23 19.54a28.92 28.92 0 0 0 18.26-2 32.56 32.56 0 0 0 10.88-7.67 11.72 11.72 0 0 1 2.76-2.21c2.69-1.53 5.18-.62 6.43 2.2a12.15 12.15 0 0 1 .7 6.31 20.83 20.83 0 0 1 -2.29 7.45 17.2 17.2 0 0 1 -3.21 4.34 52 52 0 0 1 -30.54 15 52.4 52.4 0 0 1 -57.85-39.29 51.79 51.79 0 0 1 29.41-59.37 66.66 66.66 0 0 1 20.53-5.62c1.79-.18 3.61-.22 4.85-.29z"/><path d="m117.29 104.58-11.68.45a9.22 9.22 0 0 1 -7.61-3.26 5.33 5.33 0 0 1 .74-8c.73-.51 1.43-1.1 2.13-1.67a6.72 6.72 0 0 0 2.43-3.92 20.29 20.29 0 0 0 .51-4.23c-.11-7.19-.35-14.36-.46-21.54a9 9 0 0 0 -2.83-6.62c-1-1-2.15-1.9-3.1-3a16.17 16.17 0 0 1 -2.25-3.09 5.09 5.09 0 0 1 2-7 60.58 60.58 0 0 1 18.83-7.26 14.9 14.9 0 0 1 5.53-.12 5.4 5.4 0 0 1 4.8 4.74c.16.89.21 1.8.42 2.68.26 1 .9 1.22 1.61.42a9.72 9.72 0 0 0 1.31-2 119.92 119.92 0 0 1 10.16-16.86 48.86 48.86 0 0 1 11.49-11.6 30.88 30.88 0 0 1 13.47-5.48 21 21 0 0 1 9.59.68c6.36 2.08 9.75 7.37 8.85 14a18.23 18.23 0 0 1 -6.4 11.75 15.05 15.05 0 0 1 -3.14 1.93 3 3 0 0 1 -3.63-.72 24.94 24.94 0 0 0 -3.46-3 15.38 15.38 0 0 0 -16.21-1.26 23.67 23.67 0 0 0 -7.39 5.75 44 44 0 0 0 -8.75 15.39 65.57 65.57 0 0 0 -3.48 26.68c.23 3 .79 5.93 1.18 8.9a3 3 0 0 0 1.41 2.2c.43.29.87.57 1.3.87a8.47 8.47 0 0 1 3 9.51 5.47 5.47 0 0 1 -2.85 3 12 12 0 0 1 -5 1.11c-4.18.18-8.36.33-12.54.49z"/><path d="m373.14 108.32c7.46.09 14.23 2.16 20 7a21.55 21.55 0 0 1 4.89 5.9 17.41 17.41 0 0 1 -1.53 19.79 23.52 23.52 0 0 1 -11.76 7.99 31.59 31.59 0 0 1 -27-3.26 21.38 21.38 0 0 1 -7.91-8.24c-3.57-6.69-3.13-13.19 1.33-19.3 3.24-4.43 7.76-7.07 12.95-8.61a30.16 30.16 0 0 1 9-1.26z"/><path d="m631.15 277.68 13.49-55h14.36l13.63 55h-11.56l-2.64-12.43h-13.11l-2.64 12.43zm16.05-21.48h9.27l-2.64-13.26c-.35-1.91-.71-3.8-1.09-5.69s-.67-3.35-.87-4.41c-.2 1.06-.46 2.52-.79 4.37s-.69 3.75-1.09 5.66z"/><path d="m679.23 277.68v-55h17.86a21.56 21.56 0 0 1 10 2.19 16.06 16.06 0 0 1 6.61 6.13 17.74 17.74 0 0 1 2.38 9.3v19.7a17.81 17.81 0 0 1 -2.38 9.27 16.31 16.31 0 0 1 -6.63 6.22 21.32 21.32 0 0 1 -10 2.22zm11.3-10.55h6.56a7.84 7.84 0 0 0 5.57-2 6.74 6.74 0 0 0 2.11-5.2v-19.63a6.65 6.65 0 0 0 -2.11-5.12 7.84 7.84 0 0 0 -5.57-2h-6.56z"/><path d="m722.86 277.68v-55h12.73l5 17.33c.55 1.81 1 3.39 1.24 4.75s.44 2.31.49 2.86c0-.55.22-1.5.49-2.86s.67-2.94 1.17-4.75l5-17.33h12.74v55h-10.3v-15.07q0-4.14.19-8.7t.45-9.08c.17-3 .39-5.84.64-8.48s.47-4.94.68-6.9l-6.38 24.87h-9.42l-6.63-24.87q.38 2.79.75 6.67t.72 8.37c.23 3 .41 6 .56 9.15s.23 6.11.23 9v15.07z"/><path d="m770.93 277.68v-9.8h10.93v-35.41h-10.93v-9.8h33.16v9.8h-10.93v35.41h10.93v9.8z"/><path d="m814.64 277.68v-55h13.19l14.24 42.58q-.23-2.79-.53-6.45t-.49-7.31c-.12-2.43-.19-4.5-.19-6.21v-22.62h9.95v55h-13.19l-14.09-42.57q.22 2.42.45 5.73t.42 6.71c.12 2.26.19 4.27.19 6v24.11z"/></svg>